# Blender v2.93.0 OBJ File: 'Beanie.blend'
# www.blender.org
mtllib Beanie.mtl
o Beanie_Cylinder.001
v -0.000073 -0.231170 -0.919394
v -0.000047 0.232597 -0.956475
v 0.702709 -0.233721 -0.644318
v 0.717816 0.232597 -0.675477
v 0.985147 -0.234954 0.000000
v 1.013888 0.232597 0.000000
v 0.702709 -0.233721 0.644318
v 0.717816 0.232597 0.675477
v -0.000073 -0.231170 0.919394
v -0.000047 0.232597 0.956475
v -0.702813 -0.268149 0.644290
v -0.717909 0.232597 0.675478
v -0.985239 -0.266916 -0.000000
v -1.013982 0.232597 -0.000000
v -0.702813 -0.268149 -0.644290
v -0.717910 0.232597 -0.675477
v 0.748205 0.211301 -0.707107
v -0.000047 0.211301 -1.000000
v 1.058141 0.211301 0.000000
v 0.748205 0.211301 0.707107
v -0.000047 0.211301 1.000000
v -0.748298 0.211301 0.707107
v -1.058234 0.211301 -0.000000
v -0.748299 0.211301 -0.707107
v 0.602413 0.831380 -0.606510
v -0.036135 0.743504 -0.858817
v 0.849359 0.867624 0.000000
v 0.525312 0.831380 0.606510
v -0.113236 0.743504 0.858817
v -0.691099 0.655627 0.606510
v -0.954460 0.619383 -0.000000
v -0.691100 0.655627 -0.606510
v 0.195361 1.302880 -0.253768
v -0.087376 1.263969 -0.365485
v 0.282938 1.318928 0.000000
v 0.166327 1.302880 0.268551
v -0.116411 1.263969 0.380268
v -0.399148 1.225059 0.268551
v -0.515759 1.209011 -0.000000
v -0.399148 1.225059 -0.268551
v -0.075684 1.412575 -0.049171
v -0.127453 1.405451 -0.069626
v -0.054333 1.415514 -0.000000
v -0.075684 1.412575 0.049171
v -0.127453 1.405451 0.069626
v -0.179221 1.398327 0.049171
v -0.200572 1.395388 -0.000000
v -0.179221 1.398327 -0.049171
v -0.000058 -0.231960 -0.964027
v -0.000047 -0.200736 -1.000000
v 0.748205 -0.200737 -0.707107
v 0.727855 -0.233100 -0.679021
v 1.058141 -0.200737 0.000000
v 1.025415 -0.233654 0.000000
v 0.748205 -0.200737 0.707107
v 0.727855 -0.233100 0.679021
v -0.000047 -0.200736 1.000000
v -0.000059 -0.231960 0.964027
v -0.748298 -0.236460 0.707107
v -0.727953 -0.268245 0.679009
v -1.058234 -0.236461 -0.000000
v -1.025499 -0.267691 -0.000000
v -0.748299 -0.236460 -0.707107
v -0.727953 -0.268245 -0.679009
v -0.005246 0.040279 -0.691385
v -0.003109 -0.072611 -0.868779
v 0.660980 -0.075006 -0.608844
v 0.531965 0.048199 -0.480719
v 0.927861 -0.076154 0.000000
v 0.742689 0.047404 0.000000
v 0.660980 -0.075006 0.608844
v 0.531965 0.048199 0.480719
v -0.003109 -0.072611 0.868779
v -0.005246 0.040279 0.691385
v -0.667156 -0.107530 0.608815
v -0.543176 0.026079 0.480751
v -0.934025 -0.106344 -0.000000
v -0.753560 0.017335 -0.000000
v -0.667157 -0.107530 -0.608815
v -0.543176 0.026079 -0.480751
vt 0.125000 0.533215
vt 0.125000 1.000000
vt 0.000000 1.000000
vt 0.000000 0.535888
vt 0.951925 0.250000
vt 0.894040 0.389750
vt 0.908225 0.406307
vt 0.972929 0.250000
vt 0.894040 0.110250
vt 0.908225 0.093694
vt 0.750014 0.050587
vt 0.750006 0.028113
vt 0.605941 0.110256
vt 0.591766 0.093696
vt 0.548069 0.250000
vt 0.527073 0.250000
vt 0.020037 0.250000
vt 0.087187 0.087885
vt 0.087187 0.087885
vt 0.020037 0.250000
vt 0.605941 0.389744
vt 0.591766 0.406304
vt 0.750014 0.449413
vt 0.750006 0.471887
vt 0.951925 0.250000
vt 0.894040 0.389750
vt 1.000000 0.535888
vt 1.000000 1.000000
vt 0.875000 1.000000
vt 0.875000 0.535887
vt 0.750000 0.535887
vt 0.750000 1.000000
vt 0.625000 1.000000
vt 0.625000 0.535887
vt 0.500000 1.000000
vt 0.500000 0.535888
vt 0.375000 1.000000
vt 0.375000 0.533215
vt 0.250000 1.000000
vt 0.250000 0.533215
vt 0.750014 0.449413
vt 0.605941 0.389744
vt 0.548069 0.250000
vt 0.605941 0.110256
vt 0.750014 0.050587
vt 0.894040 0.110250
vt 0.750031 0.416195
vt 0.872081 0.365555
vt 0.919944 0.250000
vt 0.872081 0.134445
vt 0.750031 0.083805
vt 0.627858 0.134437
vt 0.580043 0.250000
vt 0.627858 0.365563
vt 0.250000 0.479554
vt 0.412813 0.412115
vt 0.419706 0.419706
vt 0.250000 0.490000
vt 0.479963 0.250000
vt 0.490000 0.250000
vt 0.412813 0.087885
vt 0.419706 0.080294
vt 0.250000 0.020446
vt 0.250000 0.010000
vt 0.080294 0.080294
vt 0.010000 0.250000
vt 0.087187 0.412115
vt 0.080294 0.419706
vt 0.412813 0.412115
vt 0.250000 0.479554
vt 0.250000 0.479554
vt 0.412813 0.412115
vt 0.412813 0.087885
vt 0.250000 0.020446
vt 0.479963 0.250000
vt 0.087187 0.412115
vt 0.087187 0.412115
vt 0.020037 0.250000
vt 0.020037 0.250000
vt 0.087187 0.412115
vt 0.087187 0.087885
vt 0.412813 0.087885
vt 0.250000 0.020446
vt 0.479963 0.250000
vt 0.412813 0.412115
vt 0.250000 0.479554
vt 0.087187 0.087885
vt 0.250000 0.020446
vt 0.412813 0.087885
vt 0.479963 0.250000
vt 0.876355 0.500000
vt 0.997962 0.500000
vt 0.752127 0.500000
vt 0.872158 0.500000
vt 0.627842 0.500000
vt 0.747873 0.500000
vt 0.502038 0.500000
vt 0.623645 0.500000
vt 0.376352 0.500000
vt 0.497967 0.500000
vt 0.252128 0.500000
vt 0.372156 0.500000
vt 0.127844 0.500000
vt 0.247872 0.500000
vt 0.002033 0.500000
vt 0.123648 0.500000
vn -0.3645 0.0000 -0.9312
vn 0.0232 -0.9997 -0.0115
vn 0.0232 -0.9997 0.0115
vn -0.0030 -1.0000 -0.0012
vn 0.0494 -0.9988 0.0045
vn 0.0102 -0.9999 -0.0058
vn -0.9100 0.1305 0.3934
vn 0.0102 -0.9999 0.0058
vn 0.0494 -0.9988 -0.0045
vn -0.8698 -0.3138 0.3807
vn 0.3645 0.0000 -0.9312
vn 0.9159 0.0000 0.4014
vn 0.3645 0.0000 0.9312
vn -0.3645 0.0000 0.9312
vn -0.9159 0.0000 0.4014
vn -0.9159 0.0000 -0.4014
vn 0.9159 0.0000 -0.4014
vn 0.3629 -0.2771 0.8897
vn 0.8789 -0.2803 0.3858
vn 0.3629 -0.2771 -0.8897
vn -0.8698 -0.3138 -0.3807
vn 0.8789 -0.2803 -0.3858
vn -0.3496 -0.2910 -0.8906
vn 0.0203 -0.9998 0.0000
vn 0.1695 0.8852 -0.4331
vn 0.4260 0.8852 -0.1867
vn 0.4260 0.8852 0.1867
vn 0.1695 0.8852 0.4331
vn -0.1695 0.8852 0.4331
vn -0.4260 0.8852 0.1867
vn -0.4260 0.8852 -0.1867
vn -0.1695 0.8852 -0.4331
vn 0.1839 0.6857 -0.7043
vn 0.3430 0.2312 0.9104
vn 0.8950 0.2246 -0.3854
vn -0.9100 0.1305 -0.3934
vn -0.3849 0.1275 0.9141
vn 0.8629 0.2734 0.4251
vn 0.3491 0.1856 -0.9185
vn -0.3663 0.1599 -0.9166
vn -0.5018 0.8487 -0.1672
vn -0.3377 0.6168 -0.7109
vn -0.7657 0.5697 0.2985
vn 0.1937 0.6647 0.7216
vn 0.6049 0.7453 -0.2805
vn -0.7657 0.5697 -0.2985
vn -0.3820 0.6168 0.6882
vn 0.5971 0.7247 0.3440
vn -0.1363 0.9907 0.0000
vn -0.2802 0.8698 0.4061
vn 0.2711 0.9466 0.1743
vn 0.0440 0.9036 -0.4261
vn -0.2511 0.8626 -0.4393
vn -0.5018 0.8487 0.1672
vn 0.0380 0.9099 0.4131
vn 0.2696 0.9502 -0.1565
vn 0.2503 -0.7257 -0.6408
vn 0.6748 -0.6760 -0.2960
vn 0.6748 -0.6760 0.2960
vn 0.2503 -0.7257 0.6408
vn -0.2182 -0.7295 0.6482
vn -0.6640 -0.6889 0.2907
vn -0.6640 -0.6889 -0.2907
vn -0.2182 -0.7295 -0.6482
vn -0.0030 -1.0000 0.0012
vn -0.2080 -0.8151 0.5406
vn -0.5393 -0.8087 0.2350
vn -0.5393 -0.8087 -0.2350
vn -0.2080 -0.8151 -0.5406
vn 0.2469 -0.7999 -0.5470
vn 0.5649 -0.7889 -0.2420
vn 0.5649 -0.7889 0.2420
vn 0.2469 -0.7999 0.5470
vn -0.3496 -0.2910 0.8906
usemtl Beanie_Gray
s off
f 63/1/1 24/2/1 18/3/1 50/4/1
f 5/5/2 3/6/2 52/7/2 54/8/2
f 7/9/3 5/5/3 54/8/3 56/10/3
f 9/11/4 7/9/4 56/10/4 58/12/4
f 11/13/5 9/11/5 58/12/5 60/14/5
f 13/15/6 11/13/6 60/14/6 62/16/6
f 14/17/7 12/18/7 30/19/7 31/20/7
f 15/21/8 13/15/8 62/16/8 64/22/8
f 1/23/9 15/21/9 64/22/9 49/24/9
f 3/6/10 5/5/10 69/25/10 67/26/10
f 50/27/11 18/28/11 17/29/11 51/30/11
f 53/31/12 19/32/12 20/33/12 55/34/12
f 55/34/13 20/33/13 21/35/13 57/36/13
f 57/36/14 21/35/14 22/37/14 59/38/14
f 59/38/15 22/37/15 23/39/15 61/40/15
f 61/40/16 23/39/16 24/2/16 63/1/16
f 51/30/17 17/29/17 19/32/17 53/31/17
f 15/21/18 1/23/18 66/41/18 79/42/18
f 13/15/19 15/21/19 79/42/19 77/43/19
f 9/11/20 11/13/20 75/44/20 73/45/20
f 5/5/21 7/9/21 71/46/21 69/25/21
f 11/13/22 13/15/22 77/43/22 75/44/22
f 7/9/23 9/11/23 73/45/23 71/46/23
f 65/47/24 68/48/24 70/49/24 72/50/24 74/51/24 76/52/24 78/53/24 80/54/24
f 2/55/25 4/56/25 17/57/25 18/58/25
f 4/56/26 6/59/26 19/60/26 17/57/26
f 6/59/27 8/61/27 20/62/27 19/60/27
f 8/61/28 10/63/28 21/64/28 20/62/28
f 10/63/29 12/18/29 22/65/29 21/64/29
f 12/18/30 14/17/30 23/66/30 22/65/30
f 14/17/31 16/67/31 24/68/31 23/66/31
f 16/67/32 2/55/32 18/58/32 24/68/32
f 25/69/33 26/70/33 34/71/33 33/72/33
f 10/63/34 8/61/34 28/73/34 29/74/34
f 6/59/35 4/56/35 25/69/35 27/75/35
f 16/67/36 14/17/36 31/20/36 32/76/36
f 12/18/37 10/63/37 29/74/37 30/19/37
f 8/61/38 6/59/38 27/75/38 28/73/38
f 4/56/39 2/55/39 26/70/39 25/69/39
f 2/55/40 16/67/40 32/76/40 26/70/40
f 40/77/41 39/78/41 47/79/41 48/80/41
f 26/70/42 32/76/42 40/77/42 34/71/42
f 31/20/43 30/19/43 38/81/43 39/78/43
f 29/74/44 28/73/44 36/82/44 37/83/44
f 27/75/45 25/69/45 33/72/45 35/84/45
f 32/76/46 31/20/46 39/78/46 40/77/46
f 30/19/47 29/74/47 37/83/47 38/81/47
f 28/73/48 27/75/48 35/84/48 36/82/48
f 41/85/49 42/86/49 48/80/49 47/79/49 46/87/49 45/88/49 44/89/49 43/90/49
f 38/81/50 37/83/50 45/88/50 46/87/50
f 36/82/51 35/84/51 43/90/51 44/89/51
f 33/72/52 34/71/52 42/86/52 41/85/52
f 34/71/53 40/77/53 48/80/53 42/86/53
f 39/78/54 38/81/54 46/87/54 47/79/54
f 37/83/55 36/82/55 44/89/55 45/88/55
f 35/84/56 33/72/56 41/85/56 43/90/56
f 50/27/57 51/30/57 52/91/57 49/92/57
f 51/30/58 53/31/58 54/93/58 52/94/58
f 53/31/59 55/34/59 56/95/59 54/96/59
f 55/34/60 57/36/60 58/97/60 56/98/60
f 57/36/61 59/38/61 60/99/61 58/100/61
f 59/38/62 61/40/62 62/101/62 60/102/62
f 61/40/63 63/1/63 64/103/63 62/104/63
f 63/1/64 50/4/64 49/105/64 64/106/64
f 3/6/65 1/23/65 49/24/65 52/7/65
f 66/41/66 67/26/66 68/48/66 65/47/66
f 67/26/67 69/25/67 70/49/67 68/48/67
f 69/25/68 71/46/68 72/50/68 70/49/68
f 71/46/69 73/45/69 74/51/69 72/50/69
f 73/45/70 75/44/70 76/52/70 74/51/70
f 75/44/71 77/43/71 78/53/71 76/52/71
f 77/43/72 79/42/72 80/54/72 78/53/72
f 79/42/73 66/41/73 65/47/73 80/54/73
f 1/23/74 3/6/74 67/26/74 66/41/74
