# Blender v2.93.0 OBJ File: 'TopHat.blend'
# www.blender.org
mtllib TopHat.mtl
o Cylinder
v 0.000000 -0.021140 -0.277860
v 0.000000 0.025749 -0.288630
v 0.252434 -0.021140 -0.187779
v 0.259125 0.025749 -0.196162
v 0.342719 -0.021140 0.000000
v 0.353440 0.025749 0.000000
v 0.252434 -0.021140 0.187779
v 0.259125 0.025749 0.196162
v -0.000000 -0.021140 0.277860
v -0.000000 0.025749 0.288630
v -0.252434 -0.021140 0.187779
v -0.259125 0.025749 0.196162
v -0.342719 -0.021140 -0.000000
v -0.353440 0.025749 -0.000000
v -0.252435 -0.021140 -0.187779
v -0.259125 0.025749 -0.196162
v 0.328311 0.018467 -0.282843
v 0.000000 0.069206 -0.400000
v 0.464302 0.025749 0.000000
v 0.328311 0.018467 0.282843
v -0.000000 0.069206 0.400000
v -0.328311 0.017733 0.282843
v -0.464302 0.025749 -0.000000
v -0.328311 0.017733 -0.282843
v 0.301299 0.018467 -0.249001
v 0.000000 0.069206 -0.356519
v 0.421019 0.025749 0.000000
v 0.301299 0.018467 0.249001
v -0.000000 0.069206 0.356519
v -0.301299 0.017733 0.249001
v -0.421019 0.025749 -0.000000
v -0.301299 0.017733 -0.249001
v 0.242791 0.549184 -0.175697
v 0.259125 0.524235 -0.196162
v 0.000000 0.524235 -0.288630
v 0.000000 0.549184 -0.262336
v 0.327266 0.549184 0.000000
v 0.353440 0.524235 0.000000
v 0.242791 0.549184 0.175697
v 0.259125 0.524235 0.196162
v -0.000000 0.549184 0.262336
v -0.000000 0.524235 0.288630
v -0.242791 0.549184 0.175697
v -0.259125 0.524235 0.196162
v -0.327266 0.549184 -0.000000
v -0.353440 0.524235 -0.000000
v -0.242791 0.549184 -0.175697
v -0.259125 0.524235 -0.196162
v 0.259125 0.132291 -0.196162
v 0.000000 0.132291 -0.288630
v 0.353440 0.132291 0.000000
v -0.259125 0.132291 -0.196162
v 0.259125 0.132291 0.196162
v -0.000000 0.132291 0.288630
v -0.259125 0.132291 0.196162
v -0.353440 0.132291 -0.000000
v 0.265133 0.025749 -0.203689
v 0.000000 0.025749 -0.298539
v 0.362679 0.025749 0.000000
v 0.265133 0.025749 0.203689
v -0.000000 0.025749 0.298539
v -0.265133 0.025749 0.203689
v -0.362679 0.025749 -0.000000
v -0.265133 0.025749 -0.203689
v 0.265133 0.132291 -0.203689
v 0.362679 0.132291 0.000000
v 0.265133 0.132291 0.203689
v -0.000000 0.132291 0.298539
v -0.265133 0.132291 0.203689
v -0.362679 0.132291 -0.000000
v 0.000000 0.132291 -0.298539
v -0.265133 0.132291 -0.203689
v 0.000000 0.006813 -0.400000
v 0.328311 -0.021140 -0.282843
v 0.464302 -0.021140 0.000000
v 0.328311 -0.021140 0.282843
v -0.000000 0.006813 0.400000
v -0.328311 -0.021140 0.282843
v -0.464302 -0.021140 -0.000000
v -0.328311 -0.021140 -0.282843
v 0.000000 0.111550 -0.192719
v 0.175084 0.111550 -0.130240
v 0.237704 0.111550 0.000000
v 0.175084 0.111550 0.130240
v -0.000000 0.111550 0.192719
v -0.175084 0.111550 0.130240
v -0.237704 0.111550 -0.000000
v -0.175084 0.111550 -0.130240
vt 1.000000 0.500000
vt 1.000000 1.000000
vt 0.875000 1.000000
vt 0.875000 0.500000
vt 0.750000 1.000000
vt 0.750000 0.500000
vt 0.625000 1.000000
vt 0.625000 0.500000
vt 0.500000 1.000000
vt 0.500000 0.500000
vt 0.375000 1.000000
vt 0.375000 0.500000
vt 0.250000 1.000000
vt 0.250000 0.500000
vt 0.383943 0.132303
vt 0.432695 0.250000
vt 0.432695 0.250000
vt 0.383943 0.132303
vt 0.125000 1.000000
vt 0.125000 0.500000
vt 0.000000 1.000000
vt 0.000000 0.500000
vt 0.572847 0.250000
vt 0.619515 0.362668
vt 0.619515 0.362668
vt 0.572847 0.250000
vt 0.250000 0.463911
vt 0.405743 0.399400
vt 0.419706 0.419706
vt 0.250000 0.490000
vt 0.467627 0.250000
vt 0.490000 0.250000
vt 0.405743 0.100600
vt 0.419706 0.080294
vt 0.250000 0.036089
vt 0.250000 0.010000
vt 0.094257 0.100600
vt 0.080294 0.080294
vt 0.032373 0.250000
vt 0.010000 0.250000
vt 0.094257 0.399400
vt 0.080294 0.419706
vt 0.250000 0.423178
vt 0.383943 0.367697
vt 0.432695 0.250000
vt 0.383943 0.132303
vt 0.250000 0.076822
vt 0.116057 0.132303
vt 0.067305 0.250000
vt 0.116057 0.367697
vt 0.383943 0.367697
vt 0.383943 0.367697
vt 0.116057 0.367697
vt 0.067305 0.250000
vt 0.067305 0.250000
vt 0.116057 0.367697
vt 0.116057 0.132303
vt 0.250000 0.076822
vt 0.250000 0.076822
vt 0.116057 0.132303
vt 0.250000 0.423178
vt 0.250000 0.423178
vt 0.375500 0.355418
vt 0.250000 0.407402
vt 0.124500 0.355418
vt 0.080835 0.250000
vt 0.124500 0.144582
vt 0.250000 0.092598
vt 0.375500 0.144582
vt 0.419165 0.250000
vt 0.880485 0.362668
vt 0.750000 0.416716
vt 0.750000 0.490000
vt 0.919706 0.419706
vt 0.927153 0.250000
vt 0.990000 0.250000
vt 0.880485 0.137332
vt 0.919706 0.080294
vt 0.750000 0.083284
vt 0.750000 0.010000
vt 0.619515 0.137332
vt 0.580294 0.080294
vt 0.510000 0.250000
vt 0.580294 0.419706
vt 0.750000 0.416716
vt 0.880485 0.362668
vt 0.927153 0.250000
vt 0.880485 0.137332
vt 0.750000 0.083284
vt 0.619515 0.137332
vt 0.116057 0.132303
vt 0.250000 0.076822
vt 0.250000 0.423178
vt 0.116057 0.367697
vt 0.067305 0.250000
vt 0.383943 0.132303
vt 0.383943 0.367697
vt 0.250000 0.423178
vt 0.383943 0.367697
vt 0.250000 0.076822
vt 0.383943 0.132303
vt 0.067305 0.250000
vt 0.116057 0.132303
vt 0.116057 0.367697
vt 0.432695 0.250000
vt 0.432695 0.250000
vn 0.3361 0.0000 -0.9418
vn 0.9012 0.0000 -0.4333
vn 0.9012 0.0000 0.4333
vn 0.3361 0.0000 0.9418
vn -0.3361 0.0000 0.9418
vn -0.9012 0.0000 0.4333
vn -0.9012 0.0000 -0.4333
vn -0.3361 0.0000 -0.9418
vn 0.7337 -0.5807 0.3528
vn 0.1417 0.9887 0.0495
vn -0.0107 0.9997 -0.0222
vn -0.0107 0.9997 0.0222
vn 0.1417 0.9887 -0.0495
vn -0.1437 0.9883 -0.0502
vn 0.0118 0.9996 0.0245
vn 0.0118 0.9996 -0.0245
vn -0.1437 0.9883 0.0502
vn -0.0140 0.9592 0.2825
vn 0.0474 0.9981 -0.0391
vn 0.0474 0.9981 0.0391
vn -0.0140 0.9592 -0.2825
vn 0.0110 0.9605 -0.2781
vn -0.0522 0.9977 0.0430
vn -0.0522 0.9977 -0.0430
vn 0.0110 0.9605 0.2781
vn 0.0000 1.0000 0.0000
vn 0.2385 0.7045 -0.6684
vn 0.6549 0.6870 -0.3149
vn 0.6549 0.6870 0.3149
vn 0.2385 0.7045 0.6684
vn -0.2385 0.7045 0.6684
vn -0.6549 0.6870 0.3149
vn -0.6549 0.6870 -0.3149
vn -0.2385 0.7045 -0.6684
vn -0.0019 -0.9917 -0.1283
vn 0.0000 -1.0000 0.0000
vn -0.0019 -0.9917 0.1283
vn 0.0019 -0.9917 0.1283
vn 0.0019 -0.9917 -0.1283
vn 0.2876 -0.5172 -0.8061
vn -0.7337 -0.5807 -0.3528
vn -0.2876 -0.5172 0.8061
vn 0.2876 -0.5172 0.8061
vn 0.7337 -0.5807 -0.3528
vn -0.2876 -0.5172 -0.8061
vn -0.7337 -0.5807 0.3528
vn 0.3368 0.0000 -0.9416
vn 0.3368 0.0000 0.9416
vn -0.9019 0.0000 0.4319
vn -0.3368 0.0000 -0.9416
vn -0.3368 0.0000 0.9416
vn -0.9019 0.0000 -0.4319
vn 0.9019 0.0000 -0.4319
vn 0.9019 0.0000 0.4319
usemtl D_Dark_Gray
s off
f 73/1/1 18/2/1 17/3/1 74/4/1
f 74/4/2 17/3/2 19/5/2 75/6/2
f 75/6/3 19/5/3 20/7/3 76/8/3
f 76/8/4 20/7/4 21/9/4 77/10/4
f 77/10/5 21/9/5 22/11/5 78/12/5
f 78/12/6 22/11/6 23/13/6 79/14/6
f 53/15/3 51/16/3 38/17/3 40/18/3
f 79/14/7 23/13/7 24/19/7 80/20/7
f 80/20/8 24/19/8 18/21/8 73/22/8
f 13/23/9 15/24/9 88/25/9 87/26/9
f 26/27/10 25/28/10 17/29/10 18/30/10
f 25/28/11 27/31/11 19/32/11 17/29/11
f 27/31/12 28/33/12 20/34/12 19/32/12
f 28/33/13 29/35/13 21/36/13 20/34/13
f 29/35/14 30/37/14 22/38/14 21/36/14
f 30/37/15 31/39/15 23/40/15 22/38/15
f 31/39/16 32/41/16 24/42/16 23/40/16
f 32/41/17 26/27/17 18/30/17 24/42/17
f 2/43/18 4/44/18 25/28/18 26/27/18
f 4/44/19 6/45/19 27/31/19 25/28/19
f 6/45/20 8/46/20 28/33/20 27/31/20
f 8/46/21 10/47/21 29/35/21 28/33/21
f 10/47/22 12/48/22 30/37/22 29/35/22
f 12/48/23 14/49/23 31/39/23 30/37/23
f 14/49/24 16/50/24 32/41/24 31/39/24
f 16/50/25 2/43/25 26/27/25 32/41/25
f 51/16/2 49/51/2 34/52/2 38/17/2
f 52/53/7 56/54/7 46/55/7 48/56/7
f 55/57/5 54/58/5 42/59/5 44/60/5
f 50/61/8 52/53/8 48/56/8 35/62/8
f 56/54/6 55/57/6 44/60/6 46/55/6
f 54/58/4 53/15/4 40/18/4 42/59/4
f 33/63/26 36/64/26 47/65/26 45/66/26 43/67/26 41/68/26 39/69/26 37/70/26
f 34/52/27 35/62/27 36/64/27 33/63/27
f 38/17/28 34/52/28 33/63/28 37/70/28
f 40/18/29 38/17/29 37/70/29 39/69/29
f 42/59/30 40/18/30 39/69/30 41/68/30
f 44/60/31 42/59/31 41/68/31 43/67/31
f 46/55/32 44/60/32 43/67/32 45/66/32
f 48/56/33 46/55/33 45/66/33 47/65/33
f 35/62/34 48/56/34 47/65/34 36/64/34
f 49/51/1 50/61/1 35/62/1 34/52/1
f 3/71/35 1/72/35 73/73/35 74/74/35
f 5/75/36 3/71/36 74/74/36 75/76/36
f 7/77/36 5/75/36 75/76/36 76/78/36
f 9/79/37 7/77/37 76/78/37 77/80/37
f 11/81/38 9/79/38 77/80/38 78/82/38
f 13/23/36 11/81/36 78/82/36 79/83/36
f 15/24/36 13/23/36 79/83/36 80/84/36
f 1/72/39 15/24/39 80/84/39 73/73/39
f 81/85/36 82/86/36 83/87/36 84/88/36 85/89/36 86/90/36 87/26/36 88/25/36
f 9/79/40 11/81/40 86/90/40 85/89/40
f 5/75/41 7/77/41 84/88/41 83/87/41
f 1/72/42 3/71/42 82/86/42 81/85/42
f 15/24/43 1/72/43 81/85/43 88/25/43
f 11/81/44 13/23/44 87/26/44 86/90/44
f 7/77/45 9/79/45 85/89/45 84/88/45
f 3/71/46 5/75/46 83/87/46 82/86/46
usemtl ED_Dark_Gray
f 54/58/26 55/57/26 69/91/26 68/92/26
f 52/53/26 50/61/26 71/93/26 72/94/26
f 55/57/26 56/54/26 70/95/26 69/91/26
f 53/15/26 54/58/26 68/92/26 67/96/26
f 57/97/47 58/98/47 71/93/47 65/99/47
f 61/100/48 60/101/48 67/96/48 68/92/48
f 63/102/49 62/103/49 69/91/49 70/95/49
f 58/98/50 64/104/50 72/94/50 71/93/50
f 62/103/51 61/100/51 68/92/51 69/91/51
f 64/104/52 63/102/52 70/95/52 72/94/52
f 59/105/53 57/97/53 65/99/53 66/106/53
f 60/101/54 59/105/54 66/106/54 67/96/54
f 56/54/26 52/53/26 72/94/26 70/95/26
f 49/51/26 51/16/26 66/106/26 65/99/26
f 51/16/26 53/15/26 67/96/26 66/106/26
f 50/61/26 49/51/26 65/99/26 71/93/26
